<svg width="123" height="79" viewBox="0 0 123 79" fill="none" xmlns="http://www.w3.org/2000/svg">
<path d="M36.4768 30C37.5339 30.0189 38.4589 30.2643 39.2517 30.7362C40.0446 31.2081 40.6487 31.8405 41.064 32.6334C41.4981 33.4262 41.7152 34.3229 41.7152 35.3234C41.7152 36.0596 41.5736 36.7581 41.2905 37.4188C41.0262 38.0606 40.6581 38.6364 40.1862 39.1461C40.8658 39.6557 41.3943 40.2881 41.7719 41.0432C42.1683 41.7983 42.3665 42.6289 42.3665 43.535C42.3665 44.4978 42.1305 45.385 41.6586 46.1967C41.1867 47.0084 40.5543 47.6597 39.7614 48.1505C38.9686 48.6225 38.0908 48.8584 37.128 48.8584H30.9552V30H36.4768ZM33.447 32.5484V38.155H36.4768C37.2507 38.155 37.902 37.8813 38.4306 37.3338C38.9591 36.7864 39.2234 36.1162 39.2234 35.3234C39.2234 34.5306 38.9591 33.8698 38.4306 33.3413C37.9209 32.8127 37.2696 32.5484 36.4768 32.5484H33.447ZM33.447 40.7034V46.31H37.128C37.902 46.31 38.5533 46.0457 39.0818 45.5171C39.6104 44.9697 39.8747 44.309 39.8747 43.535C39.8747 42.7422 39.6104 42.072 39.0818 41.5246C38.5533 40.9771 37.902 40.7034 37.128 40.7034H33.447Z" fill="#0065FC"/>
<path d="M51.8004 49C50.8376 49 49.9221 48.8112 49.0537 48.4337C48.1853 48.0561 47.4208 47.537 46.7601 46.8763C46.0994 46.2156 45.5803 45.4511 45.2027 44.5827C44.8252 43.7144 44.6364 42.7988 44.6364 41.8361C44.6364 40.8544 44.8252 39.92 45.2027 39.0328C45.5803 38.1456 46.0994 37.3716 46.7601 36.7109C47.4208 36.0502 48.1853 35.5405 49.0537 35.1818C49.9221 34.8043 50.8376 34.6155 51.8004 34.6155C52.782 34.6155 53.7164 34.8043 54.6036 35.1818C55.4909 35.5405 56.2648 36.0502 56.9255 36.7109C57.5862 37.3716 58.0959 38.1456 58.4546 39.0328C58.8321 39.92 59.0209 40.8544 59.0209 41.8361C59.0209 42.7988 58.8321 43.7144 58.4546 44.5827C58.0959 45.4511 57.5862 46.2156 56.9255 46.8763C56.2648 47.537 55.4909 48.0561 54.6036 48.4337C53.7164 48.8112 52.782 49 51.8004 49ZM51.8004 37.1356C50.5356 37.1356 49.4501 37.5887 48.544 38.4948C48.1098 38.929 47.77 39.4386 47.5246 40.0238C47.2792 40.609 47.1565 41.2131 47.1565 41.8361C47.1565 42.459 47.2792 43.0537 47.5246 43.62C47.77 44.1863 48.1098 44.6865 48.544 45.1207C48.9782 45.5549 49.469 45.8947 50.0164 46.1401C50.5828 46.3855 51.1774 46.5082 51.8004 46.5082C52.4233 46.5082 53.0274 46.3855 53.6126 46.1401C54.1978 45.8947 54.698 45.5549 55.1133 45.1207C55.5286 44.6865 55.859 44.1863 56.1044 43.62C56.3498 43.0537 56.4725 42.459 56.4725 41.8361C56.4725 41.2131 56.3498 40.609 56.1044 40.0238C55.859 39.4386 55.5286 38.929 55.1133 38.4948C54.698 38.0606 54.1978 37.7303 53.6126 37.5037C53.0462 37.2583 52.4422 37.1356 51.8004 37.1356Z" fill="#0065FC"/>
<path d="M67.894 49C66.9312 49 66.0157 48.8112 65.1473 48.4337C64.279 48.0561 63.5144 47.537 62.8537 46.8763C62.193 46.2156 61.6739 45.4511 61.2964 44.5827C60.9188 43.7144 60.73 42.7988 60.73 41.8361C60.73 40.8544 60.9188 39.92 61.2964 39.0328C61.6739 38.1456 62.193 37.3716 62.8537 36.7109C63.5144 36.0502 64.279 35.5405 65.1473 35.1818C66.0157 34.8043 66.9312 34.6155 67.894 34.6155C68.8756 34.6155 69.81 34.8043 70.6973 35.1818C71.5845 35.5405 72.3585 36.0502 73.0192 36.7109C73.6799 37.3716 74.1896 38.1456 74.5482 39.0328C74.9258 39.92 75.1145 40.8544 75.1145 41.8361C75.1145 42.7988 74.9258 43.7144 74.5482 44.5827C74.1896 45.4511 73.6799 46.2156 73.0192 46.8763C72.3585 47.537 71.5845 48.0561 70.6973 48.4337C69.81 48.8112 68.8756 49 67.894 49ZM67.894 37.1356C66.6292 37.1356 65.5438 37.5887 64.6376 38.4948C64.2035 38.929 63.8637 39.4386 63.6183 40.0238C63.3729 40.609 63.2502 41.2131 63.2502 41.8361C63.2502 42.459 63.3729 43.0537 63.6183 43.62C63.8637 44.1863 64.2035 44.6865 64.6376 45.1207C65.0718 45.5549 65.5626 45.8947 66.1101 46.1401C66.6764 46.3855 67.271 46.5082 67.894 46.5082C68.5169 46.5082 69.121 46.3855 69.7062 46.1401C70.2914 45.8947 70.7916 45.5549 71.2069 45.1207C71.6222 44.6865 71.9526 44.1863 72.198 43.62C72.4434 43.0537 72.5661 42.459 72.5661 41.8361C72.5661 41.2131 72.4434 40.609 72.198 40.0238C71.9526 39.4386 71.6222 38.929 71.2069 38.4948C70.7916 38.0606 70.2914 37.7303 69.7062 37.5037C69.1399 37.2583 68.5358 37.1356 67.894 37.1356Z" fill="#0065FC"/>
<path d="M84.4557 48.8584L80.1517 43.62V48.8584H77.6599V30.0283H80.1517V38.155L84.0027 34.5306H87.712L81.0012 40.7601L87.7404 48.8584H84.4557Z" fill="#0065FC"/>
<path d="M90.7423 32.6617C90.3836 32.6617 90.0722 32.539 89.8079 32.2936C89.5625 32.0293 89.4398 31.7178 89.4398 31.3592C89.4398 31.0005 89.5625 30.6985 89.8079 30.4531C90.0722 30.1888 90.3836 30.0566 90.7423 30.0566C91.101 30.0566 91.403 30.1888 91.6484 30.4531C91.9127 30.6985 92.0448 31.0005 92.0448 31.3592C92.0448 31.7178 91.9127 32.0293 91.6484 32.2936C91.403 32.539 91.101 32.6617 90.7423 32.6617ZM89.5813 48.8584V34.7004H91.9599V48.8584H89.5813Z" fill="#0065FC"/>
<path d="M69.389 40.0097C69.389 40.8094 68.7407 41.4577 67.941 41.4577C67.1413 41.4577 66.4931 40.8094 66.4931 40.0097C66.4931 39.21 67.1413 38.5617 67.941 38.5617C68.7407 38.5617 69.389 39.21 69.389 40.0097Z" fill="#0065FC"/>
<path d="M66.4931 44.6754L67.1921 39.527H68.7899L69.3891 44.6754H66.4931Z" fill="#0065FC"/>
</svg>
